<svg xmlns="http://www.w3.org/2000/svg" version="1.1" xmlns:xlink="http://www.w3.org/1999/xlink" xmlns:svgjs="http://svgjs.com/svgjs" width="512" height="512" x="0" y="0" viewBox="0 0 32 32" style="enable-background:new 0 0 512 512" xml:space="preserve" class=""><g><path d="M16 1a15 15 0 1 0 15 15A15.005 15.005 0 0 0 16 1zm0 6a8.946 8.946 0 0 1 5.92 2.23 5.905 5.905 0 0 1-.49.63 10.773 10.773 0 0 1-4.29 2.91 39.59 39.59 0 0 0-2.94-4.78c-.19-.26-.37-.49-.52-.69A8.89 8.89 0 0 1 16 7zm-3.88.88c.13.18.29.38.49.65a39.151 39.151 0 0 1 3 4.77 28.058 28.058 0 0 1-7.64 1.01c-.32 0-.59-.01-.8-.01a8.996 8.996 0 0 1 4.95-6.42zM9.41 22.12A8.925 8.925 0 0 1 7 16v-.12c.21.01.48.02.79.03h.27a28.839 28.839 0 0 0 8.27-1.16c.16.33.32.68.47 1.03a15.359 15.359 0 0 0-6.93 5.66c-.18.25-.33.48-.46.68zM16 25a9.06 9.06 0 0 1-5.41-1.8c.11-.19.26-.43.43-.69a13.368 13.368 0 0 1 6.36-5.28 22.821 22.821 0 0 1 1.45 6.47c.02.28.03.55.03.83A9.025 9.025 0 0 1 16 25zm4.43-1.17-.06-.9a24.36 24.36 0 0 0-1.43-6.1 10.153 10.153 0 0 1 5.15.56c.24.09.5.19.75.3a9.007 9.007 0 0 1-4.41 6.14zM25 16.04a7.054 7.054 0 0 0-.8-.29 11.109 11.109 0 0 0-5.85-.41c-.15-.39-.32-.77-.49-1.13a12.46 12.46 0 0 0 4.66-3.18c.18-.2.35-.41.52-.64A8.975 8.975 0 0 1 25 16z" fill="#000000" data-original="#000000" class=""></path></g></svg>